# Alias OBJ Model File
# Exported from SketchUp, (c) 2000-2012 Trimble Navigation Limited
# File units = inches

mtllib stickman.mtl

g Mesh1 Model

usemtl FrontColor
v 21.0778 48.6637 7.27684
vt 21.0778 25.6994
vn -1.09841e-17 -0.861791 0.507264
v 21.0778 47.9219 5.52792
vt 21.0778 23.7997
vn 3.84138e-18 -0.920629 0.390438
v 23.6403 47.9219 5.52792
vt 23.6403 23.7997
v 23.6403 48.6637 7.27684
vt 23.6403 25.6994
f 1/1/1 2/2/2 3/3/2 4/4/1 

v 21.0778 47.8903 1.76115
vt 1.76115 47.8903
vn -1 -5.51239e-16 4.14514e-16
v 21.0778 47.6582 3.64662
vt 3.64662 47.6582
vt 5.52792 47.9219
vt 7.27684 48.6637
v 21.0778 49.8328 8.7742
vt 8.7742 49.8328
v 21.0778 51.3496 9.91796
vt 9.91796 51.3496
v 21.0778 53.1107 10.6302
vt 10.6302 53.1107
v 21.0778 54.9962 10.8623
vt 10.8623 54.9962
v 21.0778 56.8775 10.5985
vt 10.5985 56.8775
v 21.0778 58.6264 9.85677
vt 9.85677 58.6264
v 21.0778 60.1238 8.68767
vt 8.68767 60.1238
v 21.0778 61.2675 7.17087
vt 7.17087 61.2675
v 21.0778 61.9797 5.40972
vt 5.40972 61.9797
v 21.0778 62.2118 3.52425
vt 3.52425 62.2118
v 21.0778 61.9481 1.64295
vt 1.64295 61.9481
v 21.0778 61.2063 -0.105977
vt -0.105977 61.2063
v 21.0778 60.0372 -1.60334
vt -1.60334 60.0372
v 21.0778 58.5204 -2.74709
vt -2.74709 58.5204
v 21.0778 56.7593 -3.45929
vt -3.45929 56.7593
v 21.0778 54.8738 -3.69141
vt -3.69141 54.8738
v 21.0778 52.9925 -3.42762
vt -3.42762 52.9925
v 21.0778 51.2436 -2.6859
vt -2.6859 51.2436
v 21.0778 49.7462 -1.51681
vt -1.51681 49.7462
v 21.0778 48.6025 -0
vt 8.73705e-15 48.6025
f 5/5/3 6/6/3 2/7/3 1/8/3 7/9/3 8/10/3 9/11/3 10/12/3 11/13/3 12/14/3 13/15/3 14/16/3 15/17/3 16/18/3 17/19/3 18/20/3 19/21/3 20/22/3 21/23/3 22/24/3 23/25/3 24/26/3 25/27/3 26/28/3 

vt 21.0778 4.10354
vn -3.31848e-18 0.992507 0.122185
vt 21.0778 2.20384
vn -2.03624e-19 0.999965 -0.00840802
v 23.6403 47.6582 3.64662
vt 23.6403 2.20384
v 23.6403 47.8903 1.76115
vt 23.6403 4.10354
f 5/29/4 6/30/5 27/31/5 28/32/4 

v 21.0153 47.6582 3.64662
vt 21.0153 2.20384
vn 4.34824e-19 0.999965 -0.00840802
vn -6.1902e-19 0.992507 0.122185
v 21.0153 47.8903 1.76115
vt 21.0153 4.10354
f 29/33/6 6/30/6 5/29/7 30/34/7 

v 21.0153 47.9219 5.52792
vt -21.0153 12.1287
vn 1.48123e-18 0.990312 -0.138858
vt -21.0778 12.1287
vt -21.0778 10.229
vt -21.0153 10.229
f 31/35/8 2/36/8 6/37/6 29/38/6 

v 23.6403 41.9219 5.52792
vt 23.6403 41.9219
vn 0 0 1
vt 23.6403 47.9219
vt 21.0778 47.9219
vt 21.0153 47.9219
v 21.0153 41.9219 5.52792
vt 21.0153 41.9219
f 32/39/9 3/40/9 2/41/9 31/42/9 33/43/9 

vt -5.52792 41.9219
vn 1 -7.61341e-16 5.00845e-17
v 23.6403 32.3982 17.6831
vt -17.6831 32.3982
v 23.6403 32.3982 12.6831
vt -12.6831 32.3982
v 23.6403 37.8504 6.19865
vt -6.19865 37.8504
v 23.6403 19.2879 6.19865
vt -6.19865 19.2879
v 23.6403 10.1102 17.6831
vt -17.6831 10.1102
v 23.6403 10.1102 12.6831
vt -12.6831 10.1102
v 23.6403 16.5867 6.19865
vt -6.19865 16.5867
v 23.6403 16.5867 1.76115
vt -1.76115 16.5867
v 23.6403 10.1102 -3.11767
vt 3.11767 10.1102
v 23.6403 10.1102 -6.74267
vt 6.74267 10.1102
v 23.6403 21.394 1.76115
vt -1.76115 21.394
v 23.6403 38.7395 1.76115
vt -1.76115 38.7395
v 23.6403 34.0876 -3.11767
vt 3.11767 34.0876
v 23.6403 34.0876 -6.74267
vt 6.74267 34.0876
v 23.6403 41.9219 1.76115
vt -1.76115 41.9219
vt -1.76115 47.8903
vt -3.64662 47.6582
vt -5.52792 47.9219
f 32/44/10 34/45/10 35/46/10 36/47/10 37/48/10 38/49/10 39/50/10 40/51/10 41/52/10 42/53/10 43/54/10 44/55/10 45/56/10 46/57/10 47/58/10 48/59/10 28/60/10 27/61/10 3/62/10 

vt 23.6403 6.06226
vn 5.68405e-16 0.787158 0.616752
vt 23.6403 21.5041
vt 21.0153 21.5041
v 21.0153 32.3982 17.6831
vt 21.0153 6.06226
f 34/63/11 32/64/11 33/65/11 49/66/11 

vt 17.6831 32.3982
vn -1 7.61341e-16 -5.00845e-17
vt 5.52792 41.9219
v 21.0153 41.9219 1.76115
vt 1.76115 41.9219
v 21.0153 34.0876 -6.74267
vt -6.74267 34.0876
v 21.0153 34.0876 -3.11767
vt -3.11767 34.0876
v 21.0153 38.7395 1.76115
vt 1.76115 38.7395
v 21.0153 21.394 1.76115
vt 1.76115 21.394
v 21.0153 10.1102 -6.74267
vt -6.74267 10.1102
v 21.0153 10.1102 -3.11767
vt -3.11767 10.1102
v 21.0153 16.5867 1.76115
vt 1.76115 16.5867
v 21.0153 16.5867 6.19865
vt 6.19865 16.5867
v 21.0153 10.1102 12.6831
vt 12.6831 10.1102
v 21.0153 10.1102 17.6831
vt 17.6831 10.1102
v 21.0153 19.2879 6.19865
vt 6.19865 19.2879
v 21.0153 37.8504 6.19865
vt 6.19865 37.8504
v 21.0153 32.3982 12.6831
vt 12.6831 32.3982
f 49/67/12 33/68/12 31/7/12 29/6/12 30/5/12 50/69/12 51/70/12 52/71/12 53/72/12 54/73/12 55/74/12 56/75/12 57/76/12 58/77/12 59/78/12 60/79/12 61/80/12 62/81/12 63/82/12 

vt -23.6403 47.8903
vn 0 0 -1
vt -23.6403 41.9219
vt -21.0153 41.9219
vt -21.0153 47.8903
vt -21.0778 47.8903
f 28/83/13 48/84/13 50/85/13 30/86/13 5/87/13 

vt -23.6403 29.7
vn 5.93875e-16 0.735466 -0.677562
vt -23.6403 18.1375
vt -21.0153 18.1375
vt -21.0153 29.7
f 48/88/14 47/89/14 51/90/14 50/91/14 

vt -23.6403 6.74267
vn -7.61341e-16 -1 -0
vt -23.6403 3.11767
vt -21.0153 3.11767
vt -21.0153 6.74267
f 47/92/15 46/93/15 52/94/15 51/95/15 

vt 23.6403 21.2666
vn -5.85573e-16 -0.723738 0.690074
vt 23.6403 28.0078
vt 21.0153 28.0078
vt 21.0153 21.2666
f 46/96/16 45/97/16 53/98/16 52/99/16 

vt -23.6403 38.7395
vn 5.00845e-17 0 -1
vt -23.6403 21.394
vt -21.0153 21.394
vt -21.0153 38.7395
f 45/100/17 44/101/17 54/102/17 53/103/17 

vt -23.6403 18.1454
vn 4.98213e-16 0.601853 -0.798607
vt -23.6403 4.01596
vt -21.0153 4.01596
vt -21.0153 18.1454
f 44/104/18 43/105/18 55/106/18 54/107/18 

f 43/92/15 42/93/15 56/94/15 55/95/15 

vt 23.6403 6.19944
vn -4.98094e-16 -0.601689 0.798731
vt 23.6403 14.308
vt 21.0153 14.308
vt 21.0153 6.19944
f 42/108/19 41/109/19 57/110/19 56/111/19 

vt -23.6403 -1.76115
vt -23.6403 -6.19865
vt -21.0153 -6.19865
vt -21.0153 -1.76115
f 41/112/15 40/113/15 58/114/15 57/115/15 

vt -23.6403 7.33568
vn -5.03283e-16 -0.707537 -0.706676
vt -23.6403 -1.82913
vt -21.0153 -1.82913
vt -21.0153 7.33568
f 40/116/20 39/117/20 59/118/20 58/119/20 

vt -23.6403 -12.6831
vt -23.6403 -17.6831
vt -21.0153 -17.6831
vt -21.0153 -12.6831
f 39/120/15 38/121/15 60/122/15 59/123/15 

vt 23.6403 -7.50228
vn 5.63488e-16 0.781195 0.624287
vt 23.6403 7.19884
vt 21.0153 7.19884
vt 21.0153 -7.50228
f 38/124/21 37/125/21 61/126/21 60/127/21 

vt 23.6403 19.2879
vn -5.00845e-17 0 1
vt 23.6403 37.8504
vt 21.0153 37.8504
vt 21.0153 19.2879
f 37/128/22 36/129/22 62/130/22 61/131/22 

vt -23.6403 19.6146
vn -5.50495e-16 -0.765396 -0.64356
vt -23.6403 11.1426
vt -21.0153 11.1426
vt -21.0153 19.6146
f 36/132/23 35/133/23 63/134/23 62/135/23 

f 35/120/15 34/121/15 49/122/15 63/123/15 

vt -21.0778 16.3215
vn 1.14266e-17 -0.927064 -0.374902
vt -21.0778 18.2212
vn 1.84039e-17 -0.870199 -0.492701
v 23.6403 48.6025 1.06685e-16
vt -23.6403 18.2212
vt -23.6403 16.3215
f 5/136/24 26/137/25 64/138/25 28/139/24 

vt -21.0778 29.2621
vt -21.0778 31.1618
vn 2.91907e-17 -0.713027 -0.701136
v 23.6403 49.7462 -1.51681
vt -23.6403 31.1618
vt -23.6403 29.2621
f 26/140/25 25/141/26 65/142/26 64/143/25 

vt -21.0778 40.1438
vt -21.0778 42.0435
vn 3.58792e-17 -0.507264 -0.861791
v 23.6403 51.2436 -2.6859
vt -23.6403 42.0435
vt -23.6403 40.1438
f 25/144/26 24/145/27 66/146/27 65/147/26 

vt -21.0778 48.225
vt -21.0778 50.1247
vn 4.01227e-17 -0.266931 -0.963716
v 23.6403 52.9925 -3.42762
vt -23.6403 50.1247
vt -23.6403 48.225
f 24/148/27 23/149/28 67/150/28 66/151/27 

vt -21.0778 52.9551
vt -21.0778 54.8548
vn 4.16319e-17 -0.00840802 -0.999965
v 23.6403 54.8738 -3.69141
vt -23.6403 54.8548
vt -23.6403 52.9551
f 23/152/28 22/153/29 68/154/29 67/155/28 

vt -21.0778 54.0116
vt -21.0778 55.9113
vn 4.03039e-17 0.250688 -0.968068
v 23.6403 56.7593 -3.45929
vt -23.6403 55.9113
vt -23.6403 54.0116
f 22/156/29 21/157/30 69/158/30 68/159/29 

vt -21.0778 51.3226
vt -21.0778 53.2223
vn 3.62293e-17 0.492701 -0.870199
v 23.6403 58.5204 -2.74709
vt -23.6403 53.2223
vt -23.6403 51.3226
f 21/160/30 20/161/31 70/162/31 69/163/30 

vt -21.0778 45.0713
vt -21.0778 46.971
vn 2.96857e-17 0.701136 -0.713027
v 23.6403 60.0372 -1.60334
vt -23.6403 46.971
vt -23.6403 45.0713
f 20/164/31 19/165/32 71/166/32 70/167/31 

vt -21.0778 35.6838
vt -21.0778 37.5835
vn 2.11191e-17 0.861791 -0.507264
v 23.6403 61.2063 -0.105977
vt -23.6403 37.5835
vt -23.6403 35.6838
f 19/168/32 18/169/33 72/170/33 71/171/32 

vt -21.0778 23.7997
vt -21.0778 25.6994
vn 1.11133e-17 0.963716 -0.266931
v 23.6403 61.9481 1.64295
vt -23.6403 25.6994
vt -23.6403 23.7997
f 18/172/33 17/173/34 73/174/34 72/175/33 

vn 3.50054e-19 0.999965 -0.00840802
v 23.6403 62.2118 3.52425
vt -23.6403 12.1287
vt -23.6403 10.229
f 17/37/34 16/36/35 74/176/35 73/177/34 

vn -1.0437e-17 0.968068 0.250688
v 23.6403 61.9797 5.40972
f 16/29/35 15/30/36 75/31/36 74/32/35 

vt 21.0778 18.2212
vt 21.0778 16.3215
vn -2.05128e-17 0.870199 0.492701
v 23.6403 61.2675 7.17087
vt 23.6403 16.3215
vt 23.6403 18.2212
f 15/178/36 14/179/37 76/180/37 75/181/36 

vt 21.0778 31.1618
vt 21.0778 29.2621
vn -2.91907e-17 0.713027 0.701136
v 23.6403 60.1238 8.68767
vt 23.6403 29.2621
vt 23.6403 31.1618
f 14/182/37 13/183/38 77/184/38 76/185/37 

vt 21.0778 42.0435
vt 21.0778 40.1438
vn -3.58792e-17 0.507264 0.861791
v 23.6403 58.6264 9.85677
vt 23.6403 40.1438
vt 23.6403 42.0435
f 13/186/38 12/187/39 78/188/39 77/189/38 

vt 21.0778 50.1247
vt 21.0778 48.225
vn -4.01227e-17 0.266931 0.963716
v 23.6403 56.8775 10.5985
vt 23.6403 48.225
vt 23.6403 50.1247
f 12/190/39 11/191/40 79/192/40 78/193/39 

vt 21.0778 54.8548
vt 21.0778 52.9551
vn -4.16319e-17 0.00840802 0.999965
v 23.6403 54.9962 10.8623
vt 23.6403 52.9551
vt 23.6403 54.8548
f 11/194/40 10/195/41 80/196/41 79/197/40 

vt 21.0778 55.9113
vt 21.0778 54.0116
vn -4.03039e-17 -0.250688 0.968068
v 23.6403 53.1107 10.6302
vt 23.6403 54.0116
vt 23.6403 55.9113
f 10/198/41 9/199/42 81/200/42 80/201/41 

vt 21.0778 53.2223
vt 21.0778 51.3226
vn -3.62293e-17 -0.492701 0.870199
v 23.6403 51.3496 9.91796
vt 23.6403 51.3226
vt 23.6403 53.2223
f 9/202/42 8/203/43 82/204/43 81/205/42 

vt 21.0778 46.971
vt 21.0778 45.0713
vn -2.96857e-17 -0.701136 0.713027
v 23.6403 49.8328 8.7742
vt 23.6403 45.0713
vt 23.6403 46.971
f 8/206/43 7/207/44 83/208/44 82/209/43 

vt 21.0778 37.5835
vt 21.0778 35.6838
vt 23.6403 35.6838
vt 23.6403 37.5835
f 7/210/44 1/211/1 4/212/1 83/213/44 

vn 1 0 4.16334e-17
vt 8.7754e-16 48.6025
vt 1.51681 49.7462
vt 2.6859 51.2436
vt 3.42762 52.9925
vt 3.69141 54.8738
vt 3.45929 56.7593
vt 2.74709 58.5204
vt 1.60334 60.0372
vt 0.105977 61.2063
vt -1.64295 61.9481
vt -3.52425 62.2118
vt -5.40972 61.9797
vt -7.17087 61.2675
vt -8.68767 60.1238
vt -9.85677 58.6264
vt -10.5985 56.8775
vt -10.8623 54.9962
vt -10.6302 53.1107
vt -9.91796 51.3496
vt -8.7742 49.8328
vt -7.27684 48.6637
f 27/61/45 28/60/45 64/214/45 65/215/45 66/216/45 67/217/45 68/218/45 69/219/45 70/220/45 71/221/45 72/222/45 73/223/45 74/224/45 75/225/45 76/226/45 77/227/45 78/228/45 79/229/45 80/230/45 81/231/45 82/232/45 83/233/45 4/234/45 3/62/45 

vn 2.91471e-18 0.990312 -0.138858
f 6/37/5 2/36/46 3/176/46 27/177/5 

